<svg width="30" height="30" viewBox="0 0 30 30" fill="none" xmlns="http://www.w3.org/2000/svg">
<path d="M26.9513 6.6475L23.3525 3.04875C23.1785 2.87439 22.9718 2.73614 22.7442 2.64197C22.5166 2.54779 22.2726 2.49955 22.0263 2.5C21.545 2.5 21.0662 2.6825 20.7 3.04875L16.25 7.5H5C4.66848 7.5 4.35054 7.6317 4.11612 7.86612C3.8817 8.10054 3.75 8.41848 3.75 8.75V25C3.75 25.3315 3.8817 25.6495 4.11612 25.8839C4.35054 26.1183 4.66848 26.25 5 26.25H21.25C21.5815 26.25 21.8995 26.1183 22.1339 25.8839C22.3683 25.6495 22.5 25.3315 22.5 25V13.75L26.9513 9.29875C27.3175 8.9325 27.5 8.4525 27.5 7.9725C27.5 7.4925 27.3175 7.01375 26.9513 6.6475ZM14.375 18.34L11.66 15.625L19.5263 7.75875L22.2412 10.4737L14.375 18.34ZM11.1737 16.6663L13.3687 18.8263L11.25 18.75L11.1737 16.6663ZM20 23.75H6.25V10H13.75L9.775 13.975C9.40875 14.3413 9.1775 14.99 8.98875 15.5862C8.78875 16.2112 8.75 16.9062 8.75 17.4237V21.25H12.5763C13.0938 21.25 13.9613 21.125 14.54 20.8875C15.12 20.65 15.66 20.4537 16.025 20.0875L20 16.25V23.75ZM23.125 9.59L20.41 6.875L22.0263 5.25875L24.74 7.97375L23.125 9.59Z" fill="#0035E5"/>
</svg>
