<svg width="40" height="40" viewBox="0 0 40 40" fill="none" xmlns="http://www.w3.org/2000/svg">
<path fill-rule="evenodd" clip-rule="evenodd" d="M30.054 14.464C30.4614 14.1247 30.9869 13.961 31.515 14.009C32.043 14.057 32.5304 14.3127 32.87 14.72L37.036 19.72C37.3605 20.129 37.5122 20.6487 37.4587 21.1681C37.4052 21.6874 37.1507 22.1653 36.7496 22.4996C36.3485 22.8338 35.8326 22.998 35.3121 22.9569C34.7916 22.9159 34.3078 22.673 33.964 22.28L29.798 17.28C29.4586 16.8726 29.295 16.347 29.343 15.819C29.391 15.2909 29.6467 14.8036 30.054 14.464Z" fill="white"/>
<path fill-rule="evenodd" clip-rule="evenodd" d="M30.054 27.536C29.6465 27.1967 29.3903 26.7095 29.342 26.1814C29.2936 25.6534 29.4569 25.1277 29.796 24.72L33.964 19.72C34.1298 19.5111 34.3356 19.3374 34.5695 19.2093C34.8033 19.0811 35.0605 19.001 35.3258 18.9737C35.591 18.9463 35.8591 18.9723 36.1142 19.0501C36.3693 19.1279 36.6062 19.256 36.8111 19.4267C37.016 19.5974 37.1846 19.8074 37.3071 20.0443C37.4297 20.2811 37.5036 20.5401 37.5245 20.806C37.5455 21.0718 37.5131 21.3392 37.4292 21.5923C37.3453 21.8455 37.2116 22.0793 37.036 22.28L32.87 27.28C32.5304 27.6872 32.043 27.943 31.515 27.991C30.9869 28.039 30.4614 27.8753 30.054 27.536Z" fill="white"/>
<path fill-rule="evenodd" clip-rule="evenodd" d="M35 21C35 21.5304 34.7893 22.0391 34.4142 22.4142C34.0391 22.7893 33.5304 23 33 23H20C19.4696 23 18.9609 22.7893 18.5858 22.4142C18.2107 22.0391 18 21.5304 18 21C18 20.4696 18.2107 19.9609 18.5858 19.5858C18.9609 19.2107 19.4696 19 20 19H33C33.5304 19 34.0391 19.2107 34.4142 19.5858C34.7893 19.9609 35 20.4696 35 21ZM6 7C6 6.46957 6.21071 5.96086 6.58579 5.58579C6.96086 5.21071 7.46957 5 8 5H26C26.5304 5 27.0391 5.21071 27.4142 5.58579C27.7893 5.96086 28 6.46957 28 7C28 7.53043 27.7893 8.03914 27.4142 8.41421C27.0391 8.78929 26.5304 9 26 9H8C7.46957 9 6.96086 8.78929 6.58579 8.41421C6.21071 8.03914 6 7.53043 6 7ZM6 35C6 34.4696 6.21071 33.9609 6.58579 33.5858C6.96086 33.2107 7.46957 33 8 33H26C26.5304 33 27.0391 33.2107 27.4142 33.5858C27.7893 33.9609 28 34.4696 28 35C28 35.5304 27.7893 36.0391 27.4142 36.4142C27.0391 36.7893 26.5304 37 26 37H8C7.46957 37 6.96086 36.7893 6.58579 36.4142C6.21071 36.0391 6 35.5304 6 35Z" fill="white"/>
<path fill-rule="evenodd" clip-rule="evenodd" d="M26 5C26.5304 5 27.0391 5.21071 27.4142 5.58579C27.7893 5.96086 28 6.46957 28 7V15C28 15.5304 27.7893 16.0391 27.4142 16.4142C27.0391 16.7893 26.5304 17 26 17C25.4696 17 24.9609 16.7893 24.5858 16.4142C24.2107 16.0391 24 15.5304 24 15V7C24 6.46957 24.2107 5.96086 24.5858 5.58579C24.9609 5.21071 25.4696 5 26 5ZM26 25C26.5304 25 27.0391 25.2107 27.4142 25.5858C27.7893 25.9609 28 26.4696 28 27V35C28 35.5304 27.7893 36.0391 27.4142 36.4142C27.0391 36.7893 26.5304 37 26 37C25.4696 37 24.9609 36.7893 24.5858 36.4142C24.2107 36.0391 24 35.5304 24 35V27C24 26.4696 24.2107 25.9609 24.5858 25.5858C24.9609 25.2107 25.4696 25 26 25ZM8 5C8.53043 5 9.03914 5.21071 9.41421 5.58579C9.78929 5.96086 10 6.46957 10 7V35C10 35.5304 9.78929 36.0391 9.41421 36.4142C9.03914 36.7893 8.53043 37 8 37C7.46957 37 6.96086 36.7893 6.58579 36.4142C6.21071 36.0391 6 35.5304 6 35V7C6 6.46957 6.21071 5.96086 6.58579 5.58579C6.96086 5.21071 7.46957 5 8 5Z" fill="white"/>
</svg>
